<svg width="24" height="24" viewBox="0 0 24 24" fill="none" xmlns="http://www.w3.org/2000/svg">
<g clip-path="url(#clip0_563_4975)">
<mask id="mask0_563_4975" style="mask-type:luminance" maskUnits="userSpaceOnUse" x="0" y="0" width="24" height="24">
<path d="M0 0H24V24H0V0Z" fill="white"/>
</mask>
<g mask="url(#mask0_563_4975)">
<path fill-rule="evenodd" clip-rule="evenodd" d="M16.6836 9.6C16.7556 10.3548 16.8 11.1504 16.8 12C16.8 12.3183 16.6736 12.6235 16.4485 12.8485C16.2235 13.0736 15.9183 13.2 15.6 13.2C15.2817 13.2 14.9765 13.0736 14.7515 12.8485C14.5264 12.6235 14.4 12.3183 14.4 12C14.4 11.1444 14.3532 10.3464 14.274 9.6H9.7104C9.5436 11.196 9.5424 12.804 9.7056 14.4H12C12.3183 14.4 12.6235 14.5264 12.8485 14.7515C13.0736 14.9765 13.2 15.2817 13.2 15.6C13.2 15.9183 13.0736 16.2235 12.8485 16.4485C12.6235 16.6736 12.3183 16.8 12 16.8H10.0992C10.662 19.296 11.5416 20.892 12.0012 21.6C12.0012 21.6 12.948 21.6156 13.1124 21.6024C13.4293 21.5818 13.7415 21.6867 13.9818 21.8944C14.222 22.1021 14.3709 22.3959 14.3964 22.7124C14.4195 23.0297 14.3157 23.3432 14.1078 23.5839C13.8999 23.8247 13.6049 23.9731 13.2876 23.9964C13.1748 24.0048 12 24 12 24C5.3832 24 0 18.6168 0 12C0 5.382 5.3832 0 12 0C18.6168 0 24 5.382 24 12C24 12.4548 23.9568 12.8988 23.9052 13.3392C23.8575 13.6464 23.6927 13.9231 23.4452 14.1112C23.1978 14.2994 22.887 14.3842 22.5783 14.348C22.2696 14.3118 21.9869 14.1574 21.7897 13.9171C21.5925 13.6768 21.4961 13.3695 21.5208 13.0596C21.5628 12.7104 21.6 12.36 21.6 12C21.6 11.1696 21.4824 10.368 21.2844 9.6H16.6836ZM11.9856 2.4432C11.5224 3.1704 10.6656 4.7604 10.1088 7.2H13.8732C13.314 4.7604 12.4512 3.1704 11.9856 2.4432ZM2.7156 14.4H7.2984C7.22348 13.6038 7.18544 12.8045 7.1844 12.0048C7.1844 11.2008 7.224 10.3992 7.2996 9.6H2.7156C2.50887 10.3833 2.40281 11.1898 2.4 12C2.403 12.8101 2.50905 13.6166 2.7156 14.4ZM3.6984 16.8C4.88339 18.8445 6.77824 20.3823 9.0228 21.1212C8.39752 19.7391 7.93521 18.289 7.6452 16.8H3.6984ZM7.6476 7.2C7.93759 5.70996 8.40073 4.25891 9.0276 2.8764C6.78081 3.61478 4.88403 5.15365 3.6984 7.2H7.6476ZM16.3344 7.2H20.3004C19.1099 5.14401 17.2017 3.60038 14.9424 2.8656C15.5753 4.25061 16.0425 5.70547 16.3344 7.2Z" fill="#0D99FF"/>
<path d="M18.2675 22.7344L15.2075 16.0024C15.157 15.8912 15.1416 15.7673 15.1635 15.6471C15.1853 15.527 15.2432 15.4164 15.3295 15.33C15.4159 15.2437 15.5265 15.1858 15.6467 15.1639C15.7668 15.1421 15.8907 15.1575 16.0019 15.208L22.7339 18.268C22.8373 18.3148 22.9253 18.3899 22.9877 18.4846C23.0501 18.5794 23.0843 18.6899 23.0865 18.8033C23.0886 18.9168 23.0585 19.0285 22.9997 19.1255C22.9409 19.2226 22.8558 19.301 22.7543 19.3516L20.6639 20.3956C20.548 20.4539 20.4541 20.5482 20.3963 20.6644L19.3511 22.7548C19.3005 22.8563 19.2221 22.9414 19.1251 23.0002C19.028 23.059 18.9163 23.0891 18.8029 23.087C18.6894 23.0848 18.5789 23.0506 18.4842 22.9882C18.3894 22.9258 18.3143 22.8378 18.2675 22.7344Z" fill="#0D99FF"/>
</g>
</g>
<defs>
<clipPath id="clip0_563_4975">
<rect width="24" height="24" fill="white"/>
</clipPath>
</defs>
</svg>
