<svg width="763" height="186" viewBox="0 0 763 186" fill="none" xmlns="http://www.w3.org/2000/svg">
<path d="M27.3312 106.754V147.599L161.66 63.801C168.065 59.8197 176.496 61.7759 180.477 68.1679C181.841 70.3996 182.502 72.893 182.502 75.3589H182.544V115.887H155.212V99.9488L21.6004 183.334C19.3412 184.932 16.6411 185.869 13.6793 185.869C6.14393 185.869 0.0136719 179.739 0.0136719 172.203V106.754H27.345H27.3312Z" fill="#0D99FF"/>
<path d="M182.558 115.889V156.39C182.558 156.858 182.516 157.368 182.475 157.877C182.158 166.033 179.045 172.604 174.471 177.329C170.876 180.993 166.426 183.5 161.701 184.671C157.059 185.842 152.058 185.76 147.291 184.313C140.803 182.316 134.948 177.949 131.091 170.964C117.109 148.827 103.829 126.524 90.5625 104.262C77.4065 82.1653 64.2093 60.055 50.2268 37.8759C46.4384 32.214 42.774 29.018 39.4816 27.8058C37.8836 27.2134 36.4371 27.1445 35.1422 27.5302C33.7371 27.9573 32.3733 29.018 31.1197 30.5334C28.9706 33.1921 27.5655 36.8978 27.29 41.2785H27.3313V106.769H0V41.2648H0.0413276V40.7964C0.468379 29.9823 4.17408 20.3392 10.0013 13.2309C14.5335 7.67923 20.4296 3.5878 27.1384 1.48009C34.0126 -0.627614 41.5067 -0.586287 49.0834 2.26532C57.4453 5.43376 65.7246 11.9911 72.9432 22.8464L73.0947 23.0806C87.1874 45.4113 100.591 67.8659 113.94 90.2793C127.096 112.307 140.224 134.362 154.207 156.514C154.482 156.941 154.758 157.368 155.033 157.836L155.116 157.988C155.157 157.795 155.24 157.519 155.268 157.202C155.226 156.927 155.226 156.651 155.226 156.376V115.875H182.558V115.889ZM155.226 158.222C155.226 158.222 155.226 158.263 155.185 158.222H155.226Z" fill="#1E4470"/>
<path d="M226.633 115.102V63.7044H237.703V83.2749H259.58V63.7044H270.65V115.102H259.58V92.2364H237.703V115.102H226.633ZM293.997 115.892C290.307 115.892 287.276 115.014 284.904 113.257C282.531 111.455 280.774 108.995 279.632 105.876C278.49 102.757 277.919 99.2212 277.919 95.2675C277.919 91.1821 278.49 87.6019 279.632 84.5268C280.818 81.4518 282.597 79.0577 284.97 77.3444C287.342 75.6312 290.329 74.7746 293.931 74.7746C296.699 74.7746 298.961 75.3237 300.718 76.4219C302.519 77.4762 303.881 78.9039 304.804 80.705H306.385V75.5653H316.269V115.102H306.385V109.962H304.804C303.881 111.631 302.541 113.037 300.784 114.179C299.027 115.321 296.765 115.892 293.997 115.892ZM296.765 108.38C299.444 108.38 301.575 107.216 303.156 104.888C304.782 102.516 305.594 99.331 305.594 95.3334C305.594 91.2919 304.782 88.1071 303.156 85.7788C301.575 83.4506 299.444 82.2864 296.765 82.2864C294.348 82.2864 292.437 83.3847 291.032 85.5811C289.67 87.7337 288.989 90.9844 288.989 95.3334C288.989 99.6824 289.67 102.955 291.032 105.152C292.437 107.304 294.348 108.38 296.765 108.38ZM340.797 116.09C336.404 116.09 332.89 115.409 330.254 114.047C327.662 112.642 325.751 110.884 324.521 108.776C323.335 106.667 322.654 104.559 322.479 102.45H332.626C332.846 103.592 333.307 104.646 334.01 105.613C334.757 106.535 335.723 107.26 336.909 107.787C338.139 108.315 339.611 108.578 341.324 108.578C343.433 108.578 344.948 108.227 345.871 107.524C346.793 106.777 347.255 105.833 347.255 104.69C347.255 103.636 346.815 102.757 345.937 102.055C345.102 101.308 343.718 100.627 341.785 100.012L337.041 98.4304C334.757 97.6397 332.648 96.7831 330.715 95.8606C328.782 94.8941 327.223 93.6641 326.037 92.1705C324.895 90.6769 324.324 88.744 324.324 86.3719C324.324 82.8575 325.663 80.0241 328.343 77.8716C331.023 75.6751 334.823 74.5769 339.743 74.5769C343.301 74.5769 346.2 75.126 348.441 76.2242C350.725 77.3224 352.438 78.7941 353.58 80.6391C354.723 82.4402 355.382 84.439 355.557 86.6354H345.805C345.585 85.054 344.926 83.8459 343.828 83.0113C342.73 82.1327 341.236 81.6934 339.347 81.6934C337.634 81.6934 336.338 82.0229 335.46 82.6818C334.625 83.3407 334.208 84.2413 334.208 85.3835C334.208 86.5256 334.669 87.4701 335.591 88.2169C336.514 88.9637 337.92 89.6446 339.809 90.2596L344.553 91.7752C346.837 92.478 348.924 93.3127 350.813 94.2791C352.746 95.2016 354.283 96.4317 355.425 97.9692C356.568 99.4628 357.139 101.418 357.139 103.834C357.139 107.524 355.733 110.489 352.921 112.729C350.154 114.97 346.112 116.09 340.797 116.09ZM363.565 115.102V62.3865H374.24V80.3096H375.822C376.7 78.6403 377.908 77.2785 379.446 76.2242C381.027 75.126 383.202 74.5769 385.969 74.5769C390.362 74.5769 393.657 75.9606 395.853 78.7282C398.05 81.4957 399.148 85.2517 399.148 89.996V115.102H388.473V91.7752C388.473 89.0515 387.99 86.9649 387.024 85.5152C386.057 84.0217 384.476 83.2749 382.279 83.2749C379.731 83.2749 377.755 84.2852 376.349 86.306C374.943 88.2828 374.24 90.7648 374.24 93.752V115.102H363.565ZM424.892 116.09C418.654 116.09 413.888 114.223 410.593 110.489C407.342 106.755 405.717 101.681 405.717 95.2675C405.717 90.9625 406.442 87.2724 407.891 84.1974C409.385 81.1223 411.537 78.7501 414.349 77.0808C417.204 75.4115 420.675 74.5769 424.76 74.5769C430.647 74.5769 435.149 76.356 438.268 79.9143C441.431 83.4725 443.013 88.7001 443.013 95.597V97.8374H416.128C416.348 101.176 417.204 103.812 418.698 105.745C420.235 107.634 422.3 108.578 424.892 108.578C426.957 108.578 428.604 107.963 429.834 106.733C431.108 105.503 431.943 104.075 432.338 102.45H442.486C442.09 104.866 441.212 107.106 439.85 109.171C438.488 111.236 436.577 112.905 434.117 114.179C431.657 115.453 428.582 116.09 424.892 116.09ZM416.128 91.1162H432.602C432.426 88.129 431.679 85.8227 430.361 84.1974C429.043 82.5281 427.154 81.6934 424.694 81.6934C422.278 81.6934 420.323 82.4841 418.83 84.0656C417.38 85.6031 416.479 87.9533 416.128 91.1162ZM463.075 115.892C459.473 115.892 456.508 115.014 454.18 113.257C451.851 111.455 450.116 108.995 448.974 105.876C447.832 102.757 447.261 99.2212 447.261 95.2675C447.261 91.1821 447.832 87.6019 448.974 84.5268C450.16 81.4518 451.917 79.0577 454.246 77.3444C456.618 75.6312 459.561 74.7746 463.075 74.7746C465.667 74.7746 467.776 75.2358 469.401 76.1583C471.07 77.0808 472.388 78.3328 473.355 79.9143H474.936V62.3865H485.611V115.102H475.727V109.962H474.145C473.223 111.631 471.883 113.037 470.126 114.179C468.369 115.321 466.019 115.892 463.075 115.892ZM466.106 108.38C468.786 108.38 470.917 107.216 472.498 104.888C474.124 102.516 474.936 99.331 474.936 95.3334C474.936 91.2919 474.124 88.1071 472.498 85.7788C470.917 83.4506 468.786 82.2864 466.106 82.2864C463.69 82.2864 461.779 83.3847 460.374 85.5811C459.012 87.7337 458.331 90.9844 458.331 95.3334C458.331 99.6824 459.012 102.955 460.374 105.152C461.779 107.304 463.69 108.38 466.106 108.38ZM530.252 116.09C526.254 116.09 522.872 115.563 520.104 114.509C517.381 113.41 515.162 111.983 513.449 110.225C511.78 108.468 510.528 106.557 509.693 104.493C508.902 102.384 508.441 100.319 508.309 98.2986H518.589C518.677 99.8801 519.16 101.396 520.038 102.845C520.917 104.295 522.235 105.481 523.992 106.404C525.749 107.326 527.946 107.787 530.581 107.787C533.437 107.787 535.545 107.216 536.907 106.074C538.313 104.888 539.016 103.351 539.016 101.462C539.016 99.6604 538.401 98.1888 537.171 97.0467C535.985 95.9045 534.403 95.004 532.426 94.345L524.98 91.841C522.608 91.0503 520.324 90.0839 518.128 88.9417C515.975 87.7556 514.196 86.2181 512.79 84.3292C511.384 82.3963 510.682 79.9362 510.682 76.949C510.682 73.874 511.45 71.2822 512.988 69.1736C514.569 67.065 516.722 65.4616 519.445 64.3633C522.213 63.2651 525.376 62.716 528.934 62.716C533.503 62.716 537.105 63.4847 539.741 65.0223C542.376 66.5598 544.287 68.5146 545.473 70.8868C546.703 73.2151 547.45 75.6531 547.714 78.201H537.434C537.347 76.971 536.995 75.8069 536.38 74.7087C535.809 73.5665 534.887 72.644 533.613 71.9411C532.339 71.2383 530.625 70.8868 528.473 70.8868C526.057 70.8868 524.256 71.392 523.07 72.4024C521.927 73.4127 521.356 74.6867 521.356 76.2242C521.356 77.8935 521.949 79.2334 523.135 80.2437C524.365 81.2541 525.991 82.1107 528.012 82.8136L535.458 85.3176C537.874 86.1083 540.158 87.0967 542.311 88.2828C544.463 89.4689 546.22 91.0503 547.582 93.0271C548.988 94.96 549.691 97.5079 549.691 100.671C549.691 105.459 547.977 109.237 544.551 112.005C541.168 114.728 536.402 116.09 530.252 116.09ZM557.739 128.28V128.149C558.837 126.347 560.023 124.261 561.297 121.889C562.571 119.516 563.691 117.254 564.658 115.102L551.084 75.9606V75.5653H561.627L565.712 87.4262C566.371 89.3151 567.03 91.3359 567.689 93.4884C568.348 95.6409 569.007 98.3645 569.666 101.659H571.247C571.906 98.3645 572.565 95.6409 573.224 93.4884C573.883 91.3359 574.542 89.3151 575.201 87.4262L579.286 75.5653H589.302V75.9606L577.178 109.698C575.596 114.135 574.059 117.913 572.565 121.032C571.115 124.195 569.885 126.611 568.875 128.28H557.739ZM609.597 116.09C605.204 116.09 601.69 115.409 599.054 114.047C596.463 112.642 594.552 110.884 593.322 108.776C592.136 106.667 591.455 104.559 591.279 102.45H601.427C601.646 103.592 602.107 104.646 602.81 105.613C603.557 106.535 604.524 107.26 605.71 107.787C606.94 108.315 608.411 108.578 610.125 108.578C612.233 108.578 613.749 108.227 614.671 107.524C615.594 106.777 616.055 105.833 616.055 104.69C616.055 103.636 615.616 102.757 614.737 102.055C613.902 101.308 612.519 100.627 610.586 100.012L605.841 98.4304C603.557 97.6397 601.449 96.7831 599.516 95.8606C597.583 94.8941 596.023 93.6641 594.837 92.1705C593.695 90.6769 593.124 88.744 593.124 86.3719C593.124 82.8575 594.464 80.0241 597.143 77.8716C599.823 75.6751 603.623 74.5769 608.543 74.5769C612.101 74.5769 615.001 75.126 617.241 76.2242C619.525 77.3224 621.239 78.7941 622.381 80.6391C623.523 82.4402 624.182 84.439 624.358 86.6354H614.605C614.386 85.054 613.727 83.8459 612.629 83.0113C611.53 82.1327 610.037 81.6934 608.148 81.6934C606.435 81.6934 605.139 82.0229 604.26 82.6818C603.425 83.3407 603.008 84.2413 603.008 85.3835C603.008 86.5256 603.469 87.4701 604.392 88.2169C605.314 88.9637 606.72 89.6446 608.609 90.2596L613.353 91.7752C615.638 92.478 617.724 93.3127 619.613 94.2791C621.546 95.2016 623.084 96.4317 624.226 97.9692C625.368 99.4628 625.939 101.418 625.939 103.834C625.939 107.524 624.533 110.489 621.722 112.729C618.954 114.97 614.913 116.09 609.597 116.09ZM638.164 115.102C637.154 113.915 636.341 112.488 635.726 110.818C635.155 109.149 634.87 106.645 634.87 103.307V83.0772H629.466V75.5653H635.002V65.6812H645.479V75.5653H651.87V83.0772H645.479V102.186C645.479 105.657 645.874 108.315 646.665 110.16C647.455 112.005 648.4 113.52 649.498 114.706V115.102H638.164ZM675.237 116.09C668.999 116.09 664.233 114.223 660.938 110.489C657.687 106.755 656.062 101.681 656.062 95.2675C656.062 90.9625 656.787 87.2724 658.236 84.1974C659.73 81.1223 661.882 78.7501 664.694 77.0808C667.549 75.4115 671.02 74.5769 675.105 74.5769C680.992 74.5769 685.494 76.356 688.613 79.9143C691.776 83.4725 693.358 88.7001 693.358 95.597V97.8374H666.473C666.693 101.176 667.549 103.812 669.043 105.745C670.58 107.634 672.645 108.578 675.237 108.578C677.302 108.578 678.949 107.963 680.179 106.733C681.453 105.503 682.288 104.075 682.683 102.45H692.831C692.435 104.866 691.557 107.106 690.195 109.171C688.833 111.236 686.922 112.905 684.462 114.179C682.002 115.453 678.927 116.09 675.237 116.09ZM666.473 91.1162H682.946C682.771 88.129 682.024 85.8227 680.706 84.1974C679.388 82.5281 677.499 81.6934 675.039 81.6934C672.623 81.6934 670.668 82.4841 669.175 84.0656C667.725 85.6031 666.824 87.9533 666.473 91.1162ZM700.242 115.102V75.5653H710.126V81.4957H711.707C712.454 79.6068 713.64 77.9814 715.265 76.6196C716.891 75.2578 719.241 74.5769 722.316 74.5769C725.04 74.5769 727.302 75.1919 729.103 76.4219C730.948 77.608 732.354 79.2993 733.32 81.4957H734.902C735.692 79.5189 736.922 77.8716 738.592 76.5537C740.261 75.2358 742.567 74.5769 745.511 74.5769C749.772 74.5769 752.957 75.9606 755.065 78.7282C757.174 81.4957 758.228 85.2517 758.228 89.996V115.102H747.553V91.7752C747.553 89.0955 747.114 87.0088 746.235 85.5152C745.357 84.0217 743.929 83.2749 741.952 83.2749C739.536 83.2749 737.691 84.2852 736.417 86.306C735.187 88.3267 734.572 90.8087 734.572 93.752V115.102H723.897V91.7752C723.897 89.0955 723.458 87.0088 722.58 85.5152C721.701 84.0217 720.273 83.2749 718.296 83.2749C715.924 83.2749 714.101 84.2852 712.827 86.306C711.553 88.3267 710.916 90.8087 710.916 93.752V115.102H700.242Z" fill="#1E4470"/>
<path d="M224.325 166.79V143.39H239.325V146.21H227.685V152.84H236.865V155.54H227.685V163.97H239.505V166.79H224.325ZM243.717 166.79V148.79H246.597V151.52H247.317C247.597 150.5 248.127 149.72 248.907 149.18C249.707 148.62 250.717 148.34 251.937 148.34C253.237 148.34 254.297 148.63 255.117 149.21C255.937 149.77 256.537 150.54 256.917 151.52H257.637C257.977 150.5 258.557 149.72 259.377 149.18C260.217 148.62 261.277 148.34 262.557 148.34C264.537 148.34 265.967 148.99 266.847 150.29C267.747 151.57 268.197 153.22 268.197 155.24V166.79H264.957V155.93C264.957 154.37 264.707 153.18 264.207 152.36C263.707 151.52 262.907 151.1 261.807 151.1C260.467 151.1 259.427 151.68 258.687 152.84C257.947 153.98 257.577 155.4 257.577 157.1V166.79H254.337V155.93C254.337 154.37 254.087 153.18 253.587 152.36C253.087 151.52 252.287 151.1 251.187 151.1C249.847 151.1 248.807 151.68 248.067 152.84C247.327 153.98 246.957 155.4 246.957 157.1V166.79H243.717ZM273.107 172.79V148.79H275.987V151.13H276.707C277.027 150.41 277.597 149.77 278.417 149.21C279.237 148.63 280.337 148.34 281.717 148.34C283.257 148.34 284.567 148.73 285.647 149.51C286.727 150.27 287.547 151.36 288.107 152.78C288.687 154.2 288.977 155.87 288.977 157.79C288.977 159.69 288.687 161.35 288.107 162.77C287.547 164.19 286.727 165.29 285.647 166.07C284.587 166.85 283.297 167.24 281.777 167.24C280.557 167.24 279.567 167 278.807 166.52C278.047 166.04 277.467 165.41 277.067 164.63H276.347V172.79H273.107ZM281.147 164.54C282.607 164.54 283.727 163.95 284.507 162.77C285.287 161.59 285.677 159.93 285.677 157.79C285.677 155.65 285.287 153.99 284.507 152.81C283.727 151.63 282.607 151.04 281.147 151.04C279.647 151.04 278.457 151.66 277.577 152.9C276.697 154.14 276.257 155.77 276.257 157.79C276.257 159.81 276.697 161.44 277.577 162.68C278.457 163.92 279.647 164.54 281.147 164.54ZM299.77 167.24C297.03 167.24 294.99 166.39 293.65 164.69C292.33 162.97 291.67 160.67 291.67 157.79C291.67 154.91 292.33 152.62 293.65 150.92C294.99 149.2 297.03 148.34 299.77 148.34C302.51 148.34 304.54 149.2 305.86 150.92C307.2 152.62 307.87 154.91 307.87 157.79C307.87 160.67 307.2 162.97 305.86 164.69C304.54 166.39 302.51 167.24 299.77 167.24ZM299.77 164.6C301.43 164.6 302.64 163.99 303.4 162.77C304.18 161.55 304.57 159.89 304.57 157.79C304.57 155.69 304.18 154.03 303.4 152.81C302.64 151.59 301.43 150.98 299.77 150.98C298.11 150.98 296.89 151.59 296.11 152.81C295.35 154.03 294.97 155.69 294.97 157.79C294.97 159.89 295.35 161.55 296.11 162.77C296.89 163.99 298.11 164.6 299.77 164.6ZM313.824 166.79L310.494 148.97V148.79H313.554L316.404 164.09H317.004L320.214 148.79H325.434L328.674 164.09H329.274L332.094 148.79H334.974V148.97L331.644 166.79H326.394L323.154 151.37H322.314L319.074 166.79H313.824ZM345.654 167.24C343.014 167.24 341.004 166.38 339.624 164.66C338.264 162.92 337.584 160.63 337.584 157.79C337.584 155.91 337.884 154.27 338.484 152.87C339.104 151.45 340.004 150.34 341.184 149.54C342.384 148.74 343.864 148.34 345.624 148.34C348.084 148.34 349.954 149.14 351.234 150.74C352.534 152.34 353.184 154.66 353.184 157.7V158.63H340.734C340.834 160.39 341.284 161.84 342.084 162.98C342.904 164.1 344.104 164.66 345.684 164.66C346.824 164.66 347.744 164.34 348.444 163.7C349.144 163.06 349.644 162.17 349.944 161.03H353.004C352.744 162.25 352.314 163.33 351.714 164.27C351.114 165.19 350.314 165.92 349.314 166.46C348.314 166.98 347.094 167.24 345.654 167.24ZM340.764 156.29H350.034C349.974 154.55 349.554 153.22 348.774 152.3C347.994 151.38 346.934 150.92 345.594 150.92C344.174 150.92 343.054 151.39 342.234 152.33C341.434 153.27 340.944 154.59 340.764 156.29ZM357.191 166.79V148.79H360.071V151.85H360.791C360.911 151.35 361.121 150.85 361.421 150.35C361.721 149.85 362.201 149.44 362.861 149.12C363.521 148.78 364.451 148.61 365.651 148.61H366.251V151.67H365.351C363.551 151.67 362.281 152.14 361.541 153.08C360.801 154 360.431 155.45 360.431 157.43V166.79H357.191ZM369.717 166.79V148.79H372.957V166.79H369.717ZM371.337 146.27C370.717 146.27 370.227 146.09 369.867 145.73C369.527 145.37 369.357 144.89 369.357 144.29C369.357 143.69 369.527 143.21 369.867 142.85C370.227 142.49 370.717 142.31 371.337 142.31C371.977 142.31 372.467 142.49 372.807 142.85C373.147 143.21 373.317 143.69 373.317 144.29C373.317 144.89 373.147 145.37 372.807 145.73C372.467 146.09 371.977 146.27 371.337 146.27ZM378.119 166.79V148.79H380.999V151.49H381.719C382.059 150.49 382.649 149.72 383.489 149.18C384.329 148.62 385.399 148.34 386.699 148.34C388.799 148.34 390.319 148.99 391.259 150.29C392.219 151.57 392.699 153.22 392.699 155.24V166.79H389.459V155.93C389.459 154.37 389.179 153.18 388.619 152.36C388.059 151.52 387.189 151.1 386.009 151.1C384.549 151.1 383.409 151.68 382.589 152.84C381.769 153.98 381.359 155.4 381.359 157.1V166.79H378.119ZM404.411 173.21C403.131 173.21 402.051 173.05 401.171 172.73C400.291 172.41 399.571 171.99 399.011 171.47C398.451 170.97 398.031 170.42 397.751 169.82C397.471 169.22 397.291 168.63 397.211 168.05H400.451C400.571 168.73 400.951 169.34 401.591 169.88C402.231 170.42 403.221 170.69 404.561 170.69C406.001 170.69 407.111 170.29 407.891 169.49C408.691 168.69 409.091 167.4 409.091 165.62V163.61H408.371C408.051 164.41 407.501 165.08 406.721 165.62C405.961 166.14 404.921 166.4 403.601 166.4C401.381 166.4 399.621 165.59 398.321 163.97C397.041 162.35 396.401 160.13 396.401 157.31C396.401 155.47 396.681 153.88 397.241 152.54C397.821 151.2 398.641 150.17 399.701 149.45C400.781 148.71 402.061 148.34 403.541 148.34C404.921 148.34 405.981 148.62 406.721 149.18C407.481 149.74 408.031 150.39 408.371 151.13H409.091V148.79H411.971V165.8C411.971 168.2 411.321 170.03 410.021 171.29C408.721 172.57 406.851 173.21 404.411 173.21ZM403.991 163.7C405.531 163.7 406.721 163.11 407.561 161.93C408.401 160.73 408.821 159.21 408.821 157.37C408.821 155.49 408.391 153.97 407.531 152.81C406.691 151.63 405.521 151.04 404.021 151.04C402.621 151.04 401.541 151.59 400.781 152.69C400.021 153.79 399.641 155.35 399.641 157.37C399.641 159.39 400.011 160.95 400.751 162.05C401.511 163.15 402.591 163.7 403.991 163.7ZM424.47 166.79V143.39H432.12C436.16 143.39 439.08 144.42 440.88 146.48C442.7 148.52 443.61 151.39 443.61 155.09C443.61 158.79 442.7 161.67 440.88 163.73C439.08 165.77 436.16 166.79 432.12 166.79H424.47ZM427.86 163.97H431.82C433.84 163.97 435.46 163.65 436.68 163.01C437.92 162.35 438.81 161.36 439.35 160.04C439.91 158.72 440.19 157.07 440.19 155.09C440.19 153.09 439.91 151.44 439.35 150.14C438.81 148.82 437.92 147.84 436.68 147.2C435.46 146.54 433.84 146.21 431.82 146.21H427.86V163.97ZM447.447 166.79V148.79H450.687V166.79H447.447ZM449.067 146.27C448.447 146.27 447.957 146.09 447.597 145.73C447.257 145.37 447.087 144.89 447.087 144.29C447.087 143.69 447.257 143.21 447.597 142.85C447.957 142.49 448.447 142.31 449.067 142.31C449.707 142.31 450.197 142.49 450.537 142.85C450.877 143.21 451.047 143.69 451.047 144.29C451.047 144.89 450.877 145.37 450.537 145.73C450.197 146.09 449.707 146.27 449.067 146.27ZM462.63 173.21C461.35 173.21 460.27 173.05 459.39 172.73C458.51 172.41 457.79 171.99 457.23 171.47C456.67 170.97 456.25 170.42 455.97 169.82C455.69 169.22 455.51 168.63 455.43 168.05H458.67C458.79 168.73 459.17 169.34 459.81 169.88C460.45 170.42 461.44 170.69 462.78 170.69C464.22 170.69 465.33 170.29 466.11 169.49C466.91 168.69 467.31 167.4 467.31 165.62V163.61H466.59C466.27 164.41 465.72 165.08 464.94 165.62C464.18 166.14 463.14 166.4 461.82 166.4C459.6 166.4 457.84 165.59 456.54 163.97C455.26 162.35 454.62 160.13 454.62 157.31C454.62 155.47 454.9 153.88 455.46 152.54C456.04 151.2 456.86 150.17 457.92 149.45C459 148.71 460.28 148.34 461.76 148.34C463.14 148.34 464.2 148.62 464.94 149.18C465.7 149.74 466.25 150.39 466.59 151.13H467.31V148.79H470.19V165.8C470.19 168.2 469.54 170.03 468.24 171.29C466.94 172.57 465.07 173.21 462.63 173.21ZM462.21 163.7C463.75 163.7 464.94 163.11 465.78 161.93C466.62 160.73 467.04 159.21 467.04 157.37C467.04 155.49 466.61 153.97 465.75 152.81C464.91 151.63 463.74 151.04 462.24 151.04C460.84 151.04 459.76 151.59 459 152.69C458.24 153.79 457.86 155.35 457.86 157.37C457.86 159.39 458.23 160.95 458.97 162.05C459.73 163.15 460.81 163.7 462.21 163.7ZM475.361 166.79V148.79H478.601V166.79H475.361ZM476.981 146.27C476.361 146.27 475.871 146.09 475.511 145.73C475.171 145.37 475.001 144.89 475.001 144.29C475.001 143.69 475.171 143.21 475.511 142.85C475.871 142.49 476.361 142.31 476.981 142.31C477.621 142.31 478.111 142.49 478.451 142.85C478.791 143.21 478.961 143.69 478.961 144.29C478.961 144.89 478.791 145.37 478.451 145.73C478.111 146.09 477.621 146.27 476.981 146.27ZM486.014 166.79C485.574 166.25 485.214 165.6 484.934 164.84C484.674 164.08 484.544 162.94 484.544 161.42V151.31H482.084V148.79H484.604V144.29H487.724V148.79H490.784V151.31H487.784V160.91C487.784 162.55 487.954 163.78 488.294 164.6C488.654 165.4 489.084 166.07 489.584 166.61V166.79H486.014ZM500.305 167.24C498.765 167.24 497.455 166.85 496.375 166.07C495.295 165.29 494.465 164.2 493.885 162.8C493.325 161.38 493.045 159.71 493.045 157.79C493.045 155.87 493.325 154.21 493.885 152.81C494.465 151.39 495.295 150.29 496.375 149.51C497.475 148.73 498.805 148.34 500.365 148.34C501.725 148.34 502.805 148.63 503.605 149.21C504.425 149.77 504.995 150.41 505.315 151.13H506.035V148.79H508.915V166.79H506.035V164.45H505.315C504.995 165.17 504.425 165.82 503.605 166.4C502.785 166.96 501.685 167.24 500.305 167.24ZM500.875 164.54C502.375 164.54 503.565 163.92 504.445 162.68C505.325 161.44 505.765 159.81 505.765 157.79C505.765 155.77 505.325 154.14 504.445 152.9C503.565 151.66 502.375 151.04 500.875 151.04C499.415 151.04 498.295 151.63 497.515 152.81C496.735 153.99 496.345 155.65 496.345 157.79C496.345 159.93 496.735 161.59 497.515 162.77C498.295 163.95 499.415 164.54 500.875 164.54ZM515.388 166.79C514.948 166.25 514.588 165.6 514.308 164.84C514.048 164.08 513.918 162.94 513.918 161.42V142.79H517.158V161C517.158 162.6 517.328 163.8 517.668 164.6C518.028 165.4 518.458 166.07 518.958 166.61V166.79H515.388ZM535.768 166.79V146.21H527.998V143.39H546.898V146.21H539.128V166.79H535.768ZM549.249 166.79V148.79H552.129V151.85H552.849C552.969 151.35 553.179 150.85 553.479 150.35C553.779 149.85 554.259 149.44 554.919 149.12C555.579 148.78 556.509 148.61 557.709 148.61H558.309V151.67H557.409C555.609 151.67 554.339 152.14 553.599 153.08C552.859 154 552.489 155.45 552.489 157.43V166.79H549.249ZM567.208 167.24C565.668 167.24 564.358 166.85 563.278 166.07C562.198 165.29 561.368 164.2 560.788 162.8C560.228 161.38 559.948 159.71 559.948 157.79C559.948 155.87 560.228 154.21 560.788 152.81C561.368 151.39 562.198 150.29 563.278 149.51C564.378 148.73 565.708 148.34 567.268 148.34C568.628 148.34 569.708 148.63 570.508 149.21C571.328 149.77 571.898 150.41 572.218 151.13H572.938V148.79H575.818V166.79H572.938V164.45H572.218C571.898 165.17 571.328 165.82 570.508 166.4C569.688 166.96 568.588 167.24 567.208 167.24ZM567.778 164.54C569.278 164.54 570.468 163.92 571.348 162.68C572.228 161.44 572.668 159.81 572.668 157.79C572.668 155.77 572.228 154.14 571.348 152.9C570.468 151.66 569.278 151.04 567.778 151.04C566.318 151.04 565.198 151.63 564.418 152.81C563.638 153.99 563.248 155.65 563.248 157.79C563.248 159.93 563.638 161.59 564.418 162.77C565.198 163.95 566.318 164.54 567.778 164.54ZM580.971 166.79V148.79H583.851V151.49H584.571C584.911 150.49 585.501 149.72 586.341 149.18C587.181 148.62 588.251 148.34 589.551 148.34C591.651 148.34 593.171 148.99 594.111 150.29C595.071 151.57 595.551 153.22 595.551 155.24V166.79H592.311V155.93C592.311 154.37 592.031 153.18 591.471 152.36C590.911 151.52 590.041 151.1 588.861 151.1C587.401 151.1 586.261 151.68 585.441 152.84C584.621 153.98 584.211 155.4 584.211 157.1V166.79H580.971ZM606.362 167.24C604.702 167.24 603.332 166.95 602.252 166.37C601.172 165.77 600.362 165 599.822 164.06C599.282 163.1 598.982 162.09 598.922 161.03H602.102C602.162 161.63 602.352 162.22 602.672 162.8C602.992 163.36 603.462 163.82 604.082 164.18C604.702 164.54 605.492 164.72 606.452 164.72C607.512 164.72 608.332 164.5 608.912 164.06C609.492 163.6 609.782 163 609.782 162.26C609.782 161.62 609.552 161.08 609.092 160.64C608.652 160.18 607.962 159.78 607.022 159.44L604.892 158.69C603.932 158.33 603.062 157.94 602.282 157.52C601.522 157.08 600.912 156.54 600.452 155.9C599.992 155.24 599.762 154.41 599.762 153.41C599.762 151.87 600.312 150.64 601.412 149.72C602.512 148.8 604.022 148.34 605.942 148.34C607.322 148.34 608.462 148.58 609.362 149.06C610.282 149.54 610.982 150.2 611.462 151.04C611.942 151.86 612.222 152.79 612.302 153.83H609.242C609.162 153.07 608.862 152.39 608.342 151.79C607.822 151.17 606.972 150.86 605.792 150.86C604.852 150.86 604.132 151.07 603.632 151.49C603.132 151.89 602.882 152.44 602.882 153.14C602.882 153.82 603.122 154.38 603.602 154.82C604.082 155.26 604.802 155.66 605.762 156.02L607.892 156.74C608.852 157.1 609.712 157.5 610.472 157.94C611.232 158.36 611.822 158.89 612.242 159.53C612.682 160.17 612.902 160.99 612.902 161.99C612.902 163.53 612.342 164.79 611.222 165.77C610.102 166.75 608.482 167.24 606.362 167.24ZM617.333 166.79V151.31H614.693V148.79H617.333V147.62C617.333 146.72 617.483 145.9 617.783 145.16C618.083 144.42 618.593 143.83 619.313 143.39C620.033 142.95 621.013 142.73 622.253 142.73C622.693 142.73 623.073 142.76 623.393 142.82V145.4C623.193 145.34 622.893 145.31 622.493 145.31C621.613 145.31 621.053 145.53 620.813 145.97C620.573 146.39 620.453 146.95 620.453 147.65V148.79H623.393V151.31H620.453V166.79H617.333ZM633.755 167.24C631.015 167.24 628.975 166.39 627.635 164.69C626.315 162.97 625.655 160.67 625.655 157.79C625.655 154.91 626.315 152.62 627.635 150.92C628.975 149.2 631.015 148.34 633.755 148.34C636.495 148.34 638.525 149.2 639.845 150.92C641.185 152.62 641.855 154.91 641.855 157.79C641.855 160.67 641.185 162.97 639.845 164.69C638.525 166.39 636.495 167.24 633.755 167.24ZM633.755 164.6C635.415 164.6 636.625 163.99 637.385 162.77C638.165 161.55 638.555 159.89 638.555 157.79C638.555 155.69 638.165 154.03 637.385 152.81C636.625 151.59 635.415 150.98 633.755 150.98C632.095 150.98 630.875 151.59 630.095 152.81C629.335 154.03 628.955 155.69 628.955 157.79C628.955 159.89 629.335 161.55 630.095 162.77C630.875 163.99 632.095 164.6 633.755 164.6ZM645.859 166.79V148.79H648.739V151.85H649.459C649.579 151.35 649.789 150.85 650.089 150.35C650.389 149.85 650.869 149.44 651.529 149.12C652.189 148.78 653.119 148.61 654.319 148.61H654.919V151.67H654.019C652.219 151.67 650.949 152.14 650.209 153.08C649.469 154 649.099 155.45 649.099 157.43V166.79H645.859ZM658.385 166.79V148.79H661.265V151.52H661.985C662.265 150.5 662.795 149.72 663.575 149.18C664.375 148.62 665.385 148.34 666.605 148.34C667.905 148.34 668.965 148.63 669.785 149.21C670.605 149.77 671.205 150.54 671.585 151.52H672.305C672.645 150.5 673.225 149.72 674.045 149.18C674.885 148.62 675.945 148.34 677.225 148.34C679.205 148.34 680.635 148.99 681.515 150.29C682.415 151.57 682.865 153.22 682.865 155.24V166.79H679.625V155.93C679.625 154.37 679.375 153.18 678.875 152.36C678.375 151.52 677.575 151.1 676.475 151.1C675.135 151.1 674.095 151.68 673.355 152.84C672.615 153.98 672.245 155.4 672.245 157.1V166.79H669.005V155.93C669.005 154.37 668.755 153.18 668.255 152.36C667.755 151.52 666.955 151.1 665.855 151.1C664.515 151.1 663.475 151.68 662.735 152.84C661.995 153.98 661.625 155.4 661.625 157.1V166.79H658.385ZM693.805 167.24C692.265 167.24 690.955 166.85 689.875 166.07C688.795 165.29 687.965 164.2 687.385 162.8C686.825 161.38 686.545 159.71 686.545 157.79C686.545 155.87 686.825 154.21 687.385 152.81C687.965 151.39 688.795 150.29 689.875 149.51C690.975 148.73 692.305 148.34 693.865 148.34C695.225 148.34 696.305 148.63 697.105 149.21C697.925 149.77 698.495 150.41 698.815 151.13H699.535V148.79H702.415V166.79H699.535V164.45H698.815C698.495 165.17 697.925 165.82 697.105 166.4C696.285 166.96 695.185 167.24 693.805 167.24ZM694.375 164.54C695.875 164.54 697.065 163.92 697.945 162.68C698.825 161.44 699.265 159.81 699.265 157.79C699.265 155.77 698.825 154.14 697.945 152.9C697.065 151.66 695.875 151.04 694.375 151.04C692.915 151.04 691.795 151.63 691.015 152.81C690.235 153.99 689.845 155.65 689.845 157.79C689.845 159.93 690.235 161.59 691.015 162.77C691.795 163.95 692.915 164.54 694.375 164.54ZM709.818 166.79C709.378 166.25 709.018 165.6 708.738 164.84C708.478 164.08 708.348 162.94 708.348 161.42V151.31H705.888V148.79H708.408V144.29H711.528V148.79H714.588V151.31H711.588V160.91C711.588 162.55 711.758 163.78 712.098 164.6C712.458 165.4 712.888 166.07 713.388 166.61V166.79H709.818ZM718.08 166.79V148.79H721.32V166.79H718.08ZM719.7 146.27C719.08 146.27 718.59 146.09 718.23 145.73C717.89 145.37 717.72 144.89 717.72 144.29C717.72 143.69 717.89 143.21 718.23 142.85C718.59 142.49 719.08 142.31 719.7 142.31C720.34 142.31 720.83 142.49 721.17 142.85C721.51 143.21 721.68 143.69 721.68 144.29C721.68 144.89 721.51 145.37 721.17 145.73C720.83 146.09 720.34 146.27 719.7 146.27ZM733.352 167.24C730.612 167.24 728.572 166.39 727.232 164.69C725.912 162.97 725.252 160.67 725.252 157.79C725.252 154.91 725.912 152.62 727.232 150.92C728.572 149.2 730.612 148.34 733.352 148.34C736.092 148.34 738.122 149.2 739.442 150.92C740.782 152.62 741.452 154.91 741.452 157.79C741.452 160.67 740.782 162.97 739.442 164.69C738.122 166.39 736.092 167.24 733.352 167.24ZM733.352 164.6C735.012 164.6 736.222 163.99 736.982 162.77C737.762 161.55 738.152 159.89 738.152 157.79C738.152 155.69 737.762 154.03 736.982 152.81C736.222 151.59 735.012 150.98 733.352 150.98C731.692 150.98 730.472 151.59 729.692 152.81C728.932 154.03 728.552 155.69 728.552 157.79C728.552 159.89 728.932 161.55 729.692 162.77C730.472 163.99 731.692 164.6 733.352 164.6ZM745.396 166.79V148.79H748.276V151.49H748.996C749.336 150.49 749.926 149.72 750.766 149.18C751.606 148.62 752.676 148.34 753.976 148.34C756.076 148.34 757.596 148.99 758.536 150.29C759.496 151.57 759.976 153.22 759.976 155.24V166.79H756.736V155.93C756.736 154.37 756.456 153.18 755.896 152.36C755.336 151.52 754.466 151.1 753.286 151.1C751.826 151.1 750.686 151.68 749.866 152.84C749.046 153.98 748.636 155.4 748.636 157.1V166.79H745.396Z" fill="#0D99FF"/>
</svg>
